<svg xmlns="http://www.w3.org/2000/svg" width="1200" height="800" viewBox="0 0 1200 800">
  <rect width="1200" height="800" fill="#0a0a0a"/>
  <g opacity="0.35" stroke="#e8a598" stroke-width="1.2">
    <path d="M0 80 H1200 M0 160 H1200 M0 240 H1200 M0 320 H1200 M0 400 H1200 M0 480 H1200 M0 560 H1200 M0 640 H1200 M0 720 H1200" />
    <path d="M80 0 V800 M160 0 V800 M240 0 V800 M320 0 V800 M400 0 V800 M480 0 V800 M560 0 V800 M640 0 V800 M720 0 V800 M800 0 V800 M880 0 V800 M960 0 V800 M1040 0 V800 M1120 0 V800" />
  </g>
  <rect x="180" y="220" width="360" height="440" rx="12" fill="#141414" stroke="#e8a598" stroke-width="2"/>
  <rect x="660" y="220" width="360" height="440" rx="12" fill="#141414" stroke="#f5c4b8" stroke-width="2"/>
  <text x="360" y="200" text-anchor="middle" font-family="system-ui,sans-serif" font-size="22" fill="#f5c4b8" letter-spacing="0.2em">FINALL</text>
  <text x="840" y="200" text-anchor="middle" font-family="system-ui,sans-serif" font-size="22" fill="#e8a598" letter-spacing="0.25em">9 PATTERNS</text>
  <text x="600" y="720" text-anchor="middle" font-family="system-ui,sans-serif" font-size="15" fill="#a89893" letter-spacing="0.18em">TWO-PART PDF · PORT</text>
</svg>
